# AST/ASF file generated using VICON BodyLanguage
# -----------------------------------------------
:version 1.10
:name VICON
:units
  mass 1.0
  length 0.45
  angle deg
:documentation
   .ast/.asf automatically generated from VICON data using
   VICON BodyBuilder and BodyLanguage model FoxedUp or BRILLIANT.MOD
:root
   order TX TY TZ RX RY RZ
   axis XYZ
   position 0 0 0  
   orientation 0 0 0 
:bonedata
  begin
     id 1 
     name lhipjoint
     direction 0.78388 -0.462562 0.414208 
     length 3.01181 
     axis 0 0 0  XYZ
  end
  begin
     id 2 
     name lfemur
     direction 0.34202 -0.939693 0  
     length 6.04673  
     axis 0 0 20  XYZ
    dof rx ry rz
    limits (-160.0 20.0)
           (-70.0 70.0)
           (-60.0 70.0)
  end
  begin
     id 3 
     name ltibia
     direction 0.34202 -0.939693 0   
     length 7.211   
     axis 0 0 20   XYZ
    dof rx
    limits (-10.0 170.0)
  end
  begin
     id 4 
     name lfoot
     direction 0.121887 -0.334882 0.934344   
     length 2.13567   
     axis -90 7.62852e-016 20   XYZ
    dof rx rz
    limits (-45.0 90.0)
           (-70.0 20.0)
  end
  begin
     id 5 
     name ltoes
     direction 1.53555e-011 -4.2179e-011 1   
     length 1.05957   
     axis -90 7.62852e-016 20   XYZ
    dof rx
    limits (-90.0 20.0)
  end
  begin
     id 6 
     name rhipjoint
     direction -0.769387 -0.475875 0.426129   
     length 2.92756  
     axis 0 0 0  XYZ 
  end
  begin
     id 7 
     name rfemur
     direction -0.34202 -0.939693 0   
     length 6.35468   
     axis 0 0 -20   XYZ
    dof rx ry rz
    limits (-160.0 20.0)
           (-70.0 70.0)
           (-70.0 60.0)
  end
  begin
     id 8 
     name rtibia
     direction -0.34202 -0.939693 0   
     length 7.37886   
     axis 0 0 -20   XYZ
    dof rx
    limits (-10.0 170.0)
 end
 begin
     id 9 
     name rfoot
     direction -0.101763 -0.279592 0.954711   
     length 2.21478  
     axis -90 -7.62852e-016 -20   XYZ
    dof rx rz
    limits (-45.0 90.0)
           (-20.0 70.0)
  end
  begin
     id 10 
     name rtoes
     direction -1.53494e-011 -4.21851e-011 1   
     length 1.10506   
     axis -90 -7.62852e-016 -20   XYZ
    dof rx
    limits (-90.0 20.0)
  end
  begin
     id 11 
     name lowerback
     direction 0.00747405 0.999267 0.0375481   
     length 2.13259   
     axis 0 0 0   XYZ
    dof rx ry rz
    limits (-20.0 45.0)
           (-30.0 30.0)
           (-30.0 30.0)
  end
  begin
     id 12 
     name upperback
     direction 0.00661626 0.996177 0.0871029   
     length 2.10528   
     axis 0 0 0   XYZ
    dof rx ry rz
    limits (-20.0 45.0)
           (-30.0 30.0)
           (-30.0 30.0)
  end
  begin
     id 13 
     name thorax
     direction 0.00320659 0.997679 0.0680167   
     length 2.11338   
     axis 0 0 0   XYZ
    dof rx ry rz
    limits (-20.0 45.0)
           (-30.0 30.0)
           (-30.0 30.0)
  end
  begin
     id 14 
     name lowerneck
     direction 0.0374841 0.973033 0.227602   
     length 1.42765   
     axis 0 0 0   XYZ
    dof rx ry rz
    limits (-20.0 45.0)
           (-30.0 30.0)
           (-30.0 30.0)
  end
  begin
     id 15 
     name upperneck
     direction 0.00481585 0.989155 -0.146795   
     length 1.47593   
     axis 0 0 0   XYZ
    dof rx ry rz
    limits (-20.0 45.0)
           (-30.0 30.0)
           (-30.0 30.0)
  end
  begin
     id 16
     name head
     direction -0.00292522 0.997206 -0.0746423  
     length 1.48116  
     axis 0 0 0   XYZ
    dof rx ry rz
    limits (-20.0 45.0)
           (-30.0 30.0)
           (-30.0 30.0)
  end
  begin
     id 17 
     name lclavicle
     direction 0.951444 0.305606 0.0368784  
     length 3.01855  
     axis 0 0 0   XYZ
    dof ry rz
    limits (-20.0 10.0)
           (0.0 20.0)
  end
  begin
     id 18 
     name lhumerus
     direction 1 -4.48977e-011 2.61664e-027   
     length 5.52731   
     axis 180 -30 -90   XYZ
    dof rx ry rz
    limits (-60.0 90.0)
           (-90.0 90.0)
           (-90.0 90.0)
  end
  begin
     id 19
     name lradius
     direction 1 -4.48944e-011 8.22157e-027   
     length 3.11059   
     axis 180 -30 -90   XYZ
    dof rx
    limits (-10.0 170.0)
  end
  begin
     id 20
     name lwrist
     direction 1 -4.48976e-011 1.5779e-026   
     length 1.5553   
     axis -1.15221e-014 90 90   XYZ
    dof ry
    limits (-180.0 0.0)
 end
  begin
     id 21 
     name lhand
     direction 1 -4.49025e-011 3.1558e-026   
     length 0.419626   
     axis -2.01367e-014 90 90   XYZ
    dof rx rz
    limits (-90.0 90.0)
           (-45.0 45.0)
  end
  begin
     id 22 
     name lfingers
     direction 1 -4.4904e-011 6.31161e-026   
     length 0.338313   
     axis -4.02734e-014 90 90   XYZ
    dof rx
    limits (0.0 90.0)
  end
  begin
     id 23
     name lthumb
     direction 0.707107 -6.35004e-011 0.707107   
     length 0.485752   
     axis -90 45 2.85299e-015   XYZ
    dof rx rz
    limits (-45.0 45.0)
           (-45.0 45.0)
  end
  begin
     id 24 
     name rclavicle
     direction -0.968876 0.223791 0.105816   
     length 3.04177  
     axis 0 0 0   XYZ 
    dof ry rz
    limits (-10.0 20.0)
           (-20.0 0.0)
  end
  begin
     id 25 
     name rhumerus
     direction -1 -4.48962e-011 -1.01384e-027  
     length 5.25396   
     axis 180 30 90   XYZ
    dof rx ry rz
    limits (-90.0 60.0)
           (-90.0 90.0)
           (-90.0 90.0)
  end
  begin
     id 26 
     name rradius
     direction -1 -4.48955e-011 8.88542e-027   
     length 3.10567   
     axis 180 30 90   XYZ
    dof rx
    limits (-10.0 170.0)
  end
  begin
     id 27 
     name rwrist
     direction -1 -4.48994e-011 1.5779e-026   
     length 1.55283   
     axis -1.15221e-014 -90 -90   XYZ
    dof ry
    limits (-180.0 0.0)
  end
  begin
     id 28
     name rhand
     direction -1 -4.48891e-011 3.1558e-026   
     length 0.498676   
     axis -2.01367e-014 -90 -90   XYZ
    dof rx rz
    limits (-90.0 90.0)
           (-45.0 45.0)
  end
  begin
     id 29
     name rfingers
     direction -1 -4.48972e-011 6.31161e-026   
     length 0.402045   
     axis -4.02734e-014 -90 -90   XYZ
    dof rx
    limits (0.0 90.0)
  end
  begin
     id 30
     name rthumb
     direction -0.707107 -6.34849e-011 0.707107   
     length 0.577259   
     axis -90 -45 -2.85299e-015   XYZ
    dof rx rz
    limits (-45.0 45.0)
           (-45.0 45.0)
  end
:hierarchy
  begin
    root lhipjoint rhipjoint lowerback
    lhipjoint lfemur
    lfemur ltibia
    ltibia lfoot
    lfoot ltoes
    rhipjoint rfemur
    rfemur rtibia
    rtibia rfoot
    rfoot rtoes
    lowerback upperback
    upperback thorax
    thorax lowerneck lclavicle rclavicle
    lowerneck upperneck
    upperneck head
    lclavicle lhumerus
    lhumerus lradius
    lradius lwrist
    lwrist lhand lthumb
    lhand lfingers
    rclavicle rhumerus
    rhumerus rradius
    rradius rwrist
    rwrist rhand rthumb
    rhand rfingers
  end

#!OML:ASF H:\Pregnant\Project 1\Capture day 1\Session 1\femalepreg.ASF
:FULLY-SPECIFIED
:DEGREES
86
root 9.68115 15.7435 0.546356 27.3535 -3.3085 -2.97129
lowerback -16.7275 1.28761 5.17601
upperback -2.75712 0.775219 -0.037251
thorax 6.48953 0.488834 -2.80698
lowerneck -11.8756 2.20344 4.79404
upperneck 30.4056 2.17518 -0.750678
head 12.0115 1.41369 -0.818664
rclavicle 8.64713e-015 -8.44835e-016
rhumerus -30.0941 -7.17709 -77.3322
rradius 33.8762
rwrist -2.41575
rhand -14.4099 -15.0365
rfingers 7.12502
rthumb 11.7338 -44.6878
lclavicle 8.64713e-015 -8.44835e-016
lhumerus -38.3321 -10.2804 83.1906
lradius 26.3129
lwrist 41.1681
lhand -24.9413 -2.45645
lfingers 7.12502
lthumb 1.56829 27.5175
rfemur -23.6424 18.3516 23.8362
rtibia 25.3492
rfoot -20.5088 -10.5071
rtoes -9.9075
lfemur -57.2741 -11.7405 -10.4717
ltibia 23.1602
lfoot 2.06251 3.06238
ltoes -21.2542
87
root 9.67986 15.7361 0.640064 27.5027 -3.3653 -3.04227
lowerback -16.8477 1.21827 4.73701
upperback -2.76878 0.758507 -0.0768254
thorax 6.53659 0.472357 -2.60312
lowerneck -11.8521 2.19284 4.82547
upperneck 30.4467 2.1054 -0.598471
head 12.0205 1.40485 -0.776871
rclavicle -3.55328e-015 -2.5842e-015
rhumerus -30.223 -7.22427 -77.4271
rradius 34.0556
rwrist -2.38827
rhand -14.1486 -14.9924
rfingers 7.12502
rthumb 11.9858 -44.6293
lclavicle -3.55328e-015 -2.5842e-015
lhumerus -38.4475 -10.4928 83.1959
lradius 26.5092
lwrist 41.2642
lhand -24.871 -2.44072
lfingers 7.12502
lthumb 1.63619 27.5328
rfemur -23.1266 18.5515 23.9005
rtibia 24.8026
rfoot -20.4342 -10.5712
rtoes -10.0719
lfemur -57.2962 -11.436 -10.7975
ltibia 23.652
lfoot 2.56117 2.50449
ltoes -20.6258
88
root 9.67788 15.7298 0.734697 27.6338 -3.41204 -3.09347
lowerback -16.9452 1.137 4.25047
upperback -2.77978 0.737107 -0.118133
thorax 6.57133 0.45219 -2.37527
lowerneck -11.8272 2.17204 4.83577
upperneck 30.4864 2.02342 -0.436734
head 12.0278 1.3894 -0.729506
rclavicle 1.33186e-014 -1.21259e-014
rhumerus -30.3868 -7.29128 -77.4974
rradius 34.255
rwrist -2.3845
rhand -13.8908 -14.9275
rfingers 7.12502
rthumb 12.2344 -44.5496
lclavicle 1.33186e-014 -1.21259e-014
lhumerus -38.542 -10.7374 83.2219
lradius 26.7071
lwrist 41.3482
lhand -24.8079 -2.44775
lfingers 7.12502
lthumb 1.69705 27.5252
rfemur -22.5852 18.7725 23.9506
rtibia 24.2499
rfoot -20.3284 -10.6581
rtoes -10.2909
lfemur -57.337 -11.1028 -11.1959
ltibia 24.1993
lfoot 2.95609 1.87177
ltoes -19.7451
89
root 9.67529 15.7242 0.829501 27.7494 -3.44114 -3.11659
lowerback -17.0062 1.04571 3.71896
upperback -2.79748 0.714508 -0.173541
thorax 6.57877 0.429926 -2.13743
lowerneck -11.7967 2.13967 4.84215
upperneck 30.5262 1.9222 -0.262239
head 12.0336 1.36658 -0.679319
rclavicle 2.98177e-015 1.17283e-014
rhumerus -30.5967 -7.39399 -77.5556
rradius 34.477
rwrist -2.40165
rhand -13.6466 -14.8608
rfingers 7.12502
rthumb 12.4698 -44.4688
lclavicle 2.98177e-015 1.17283e-014
lhumerus -38.6301 -11.0337 83.2561
lradius 26.9268
lwrist 41.4255
lhand -24.7589 -2.45868
lfingers 7.12502
lthumb 1.74443 27.5139
rfemur -22.0423 19.0058 23.9802
rtibia 23.7267
rfoot -20.2008 -10.7702
rtoes -10.5687
lfemur -57.4038 -10.7706 -11.6375
ltibia 24.786
lfoot 3.19595 1.21864
ltoes -18.8018
90
root 9.67229 15.7184 0.923749 27.8461 -3.4455 -3.10474
lowerback -17.0285 0.930268 3.12879
upperback -2.80963 0.672328 -0.224587
thorax 6.56968 0.396649 -1.86615
lowerneck -11.7745 2.10396 4.81359
upperneck 30.5583 1.82319 -0.0834704
head 12.0375 1.34123 -0.621089
rclavicle 5.1684e-015 5.1684e-015
rhumerus -30.8174 -7.49796 -77.5912
rradius 34.7148
rwrist -2.44307
rhand -13.4222 -14.811
rfingers 7.12502
rthumb 12.6862 -44.4056
lclavicle 5.1684e-015 5.1684e-015
lhumerus -38.6814 -11.3266 83.3049
lradius 27.1428
lwrist 41.4881
lhand -24.7193 -2.50248
lfingers 7.12502
lthumb 1.78268 27.4698
rfemur -21.5193 19.2359 23.9881
rtibia 23.2789
rfoot -20.0666 -10.9095
rtoes -10.917
lfemur -57.4863 -10.463 -12.1043
ltibia 25.4024
lfoot 3.26177 0.583721
ltoes -17.9447
